<svg xmlns="http://www.w3.org/2000/svg" width="185" height="45" viewBox="0 0 750 199" version="1.1"><path d="M 247 61.604 L 247 82.207 243.304 78.962 C 234.996 71.668, 220.365 67.815, 208.462 69.788 C 194.398 72.118, 180.064 82.578, 173.722 95.137 C 159.962 122.390, 173.989 155.360, 203.024 164.007 C 211.666 166.581, 219.424 166.531, 227.791 163.849 C 245.745 158.094, 259.195 142.807, 261.971 125 C 262.529 121.425, 262.988 101.063, 262.992 79.750 L 263 41 255 41 L 247 41 247 61.604 M 105.404 69.061 C 91.437 71.469, 78.073 81.820, 71.180 95.570 C 61.776 114.325, 65.335 135.594, 80.373 150.508 C 88.006 158.078, 93.577 161.341, 103.334 163.955 C 112.628 166.446, 114.592 166.464, 123.500 164.137 C 137.422 160.501, 147.736 152.986, 154.489 141.559 C 159.768 132.626, 159.510 132, 150.546 132 L 143.092 132 139.618 136.549 C 132.795 145.485, 125.424 149.224, 114.595 149.244 C 99.662 149.271, 87.444 140.771, 83.479 127.597 L 82.096 123 121.548 123 L 161 123 161 117.049 C 161 100.889, 153.744 86.864, 140.566 77.553 C 130.043 70.117, 117.228 67.022, 105.404 69.061 M 274.202 102.250 C 274.601 137.551, 274.831 138.796, 282.920 149.511 C 288.200 156.503, 294.512 160.758, 303.910 163.658 C 313.476 166.610, 316.477 166.591, 326.448 163.521 C 336.423 160.449, 343.076 155.584, 348.660 147.278 C 355.191 137.561, 356 132.247, 356 99.053 L 356 71 348 71 L 340 71 340 99.634 C 340 118.689, 339.607 129.581, 338.824 132.193 C 337.323 137.204, 330.945 144.468, 325.628 147.222 C 322.652 148.764, 319.687 149.360, 315 149.360 C 307.374 149.360, 302.456 147.192, 296.793 141.335 C 290.383 134.704, 290 132.367, 290 99.874 L 290 71 281.925 71 L 273.849 71 274.202 102.250 M 107.195 85.047 C 100.468 86.403, 94.145 90.045, 89.445 95.272 C 85.549 99.605, 82.108 106.441, 83.248 107.582 C 83.495 107.828, 97.480 107.910, 114.327 107.765 L 144.958 107.500 142.593 102.398 C 136.621 89.508, 121.599 82.145, 107.195 85.047 M 207.500 85.968 C 205.714 86.707, 205.898 86.967, 209.218 88.398 C 213.571 90.274, 217.470 90.429, 221.851 88.902 C 227.965 86.771, 225.049 84.963, 215.668 85.070 C 212.276 85.109, 208.600 85.513, 207.500 85.968 M 196.962 91.072 L 193.500 94.144 197.500 91.363 C 199.700 89.833, 201.688 88.450, 201.917 88.290 C 202.146 88.131, 201.904 88, 201.379 88 C 200.854 88, 198.866 89.382, 196.962 91.072 M 201.940 90.282 C 194.065 96.431, 194.349 96.051, 196.467 97.600 C 198.260 98.911, 198.724 98.678, 202.106 94.764 C 206.359 89.841, 206.251 86.915, 201.940 90.282 M 226.697 89.636 C 226.343 89.990, 227.478 92.129, 229.220 94.390 C 230.961 96.650, 232.495 98.658, 232.628 98.852 C 232.762 99.046, 233.795 98.557, 234.924 97.766 L 236.977 96.327 234.739 94.296 C 231.299 91.175, 227.411 88.922, 226.697 89.636 M 203.963 95.046 C 202.201 97.271, 200.943 99.276, 201.167 99.500 C 201.391 99.725, 203.412 100.202, 205.657 100.561 L 209.739 101.214 211.277 96.699 C 212.777 92.297, 212.762 92.171, 210.658 91.606 C 207.379 90.727, 207.388 90.722, 203.963 95.046 M 220.279 91.806 C 219.330 92.409, 219.319 93.431, 220.231 96.399 C 221.619 100.922, 222.353 101.311, 227.486 100.244 L 231.387 99.434 227.577 95.217 C 223.734 90.963, 222.508 90.390, 220.279 91.806 M 213.609 96.020 C 211.352 101.661, 211.493 102, 216.107 102 C 218.974 102, 220.073 101.623, 219.748 100.750 C 219.492 100.063, 218.679 97.813, 217.940 95.750 C 217.202 93.688, 216.287 92, 215.908 92 C 215.528 92, 214.493 93.809, 213.609 96.020 M 188.988 103.176 C 185.850 107.508, 186.047 108.884, 190.117 111.063 C 191.617 111.866, 192.253 111.264, 194.138 107.258 C 196.970 101.237, 196.975 100.905, 194.237 99.892 C 192.307 99.178, 191.532 99.663, 188.988 103.176 M 236.404 100.152 L 234.307 101.169 236.904 106.334 C 238.332 109.175, 239.573 111.648, 239.663 111.830 C 240.023 112.557, 245 108.696, 245 107.689 C 245 106.355, 239.961 98.974, 239.114 99.068 C 238.776 99.105, 237.557 99.593, 236.404 100.152 M 471.223 100.557 C 469.095 102.047, 469 102.749, 469 117.034 C 469 131.773, 469.030 131.973, 471.456 133.563 C 473.844 135.128, 474.269 134.961, 486.866 127.541 C 499.694 119.984, 501.474 118.399, 500.366 115.512 C 499.796 114.027, 476.143 99, 474.376 99 C 473.864 99, 472.445 99.701, 471.223 100.557 M 197.807 104.210 C 196.995 105.469, 195.831 107.960, 195.220 109.744 C 193.937 113.487, 194.787 114.268, 201.878 115.861 C 205.852 116.754, 206.036 116.687, 206.564 114.145 C 206.866 112.690, 207.515 109.715, 208.005 107.532 C 208.496 105.350, 208.808 103.495, 208.699 103.410 C 208.590 103.326, 206.426 102.956, 203.891 102.588 C 199.798 101.995, 199.118 102.176, 197.807 104.210 M 225.640 102.727 C 223.002 103.121, 222.834 103.400, 223.468 106.327 C 223.846 108.072, 224.404 111.188, 224.709 113.250 C 225.014 115.313, 225.347 117, 225.450 117 C 226.024 117, 236.617 113.719, 237.219 113.355 C 237.615 113.115, 236.734 110.463, 235.261 107.460 C 232.473 101.775, 232.365 101.722, 225.640 102.727 M 210.083 109.049 C 208.266 117.521, 208.610 118.013, 216.332 117.985 C 222.561 117.962, 222.909 117.464, 221.739 110.250 L 220.724 104 215.945 104 L 211.166 104 210.083 109.049 M 184 116.477 C 184 121.234, 184.333 122.172, 186.531 123.612 C 187.923 124.525, 189.210 125.097, 189.390 124.885 C 189.571 124.673, 189.988 122.434, 190.318 119.908 C 190.872 115.674, 190.691 115.148, 188 113.158 C 186.394 111.971, 184.838 111, 184.540 111 C 184.243 111, 184 113.465, 184 116.477 M 243.500 113.454 C 240.601 115.431, 240.531 115.660, 241.418 120.250 C 242.416 125.419, 242.626 125.599, 245.303 123.569 C 246.728 122.489, 247.042 121.070, 246.803 116.805 L 246.500 111.408 243.500 113.454 M 192.651 119.697 C 191.550 126.358, 191.715 126.715, 196.678 128.406 C 203.272 130.653, 205 130.491, 205 127.625 C 205 126.319, 205.258 123.956, 205.574 122.375 C 206.121 119.634, 205.922 119.446, 201.324 118.337 C 198.671 117.698, 195.775 116.886, 194.890 116.534 C 193.631 116.033, 193.142 116.723, 192.651 119.697 M 231.250 117.860 L 226 119.474 226 124.865 L 226 130.256 230.105 129.599 C 232.363 129.238, 235.425 128.315, 236.909 127.547 C 239.411 126.253, 239.568 125.803, 239.054 121.405 C 238.749 118.795, 238.050 116.567, 237.500 116.453 C 236.950 116.339, 234.137 116.972, 231.250 117.860 M 208 125.500 L 208 131 216 131 L 224 131 224 127.082 C 224 120.302, 223.633 120, 215.393 120 L 208 120 208 125.500 M 185 126.555 C 185 127.456, 190.124 137.213, 190.407 136.849 C 190.556 136.657, 190.484 134.640, 190.245 132.368 C 189.914 129.206, 189.248 127.978, 187.406 127.139 C 186.083 126.536, 185 126.273, 185 126.555 M 243.905 127.332 C 242.369 128.459, 240.286 136, 241.511 136 C 242.222 136, 246.321 126.988, 245.832 126.499 C 245.648 126.314, 244.780 126.689, 243.905 127.332 M 192.536 134.315 C 192.924 137.167, 193.746 139.819, 194.362 140.208 C 196.100 141.307, 205.045 143.288, 205.629 142.704 C 206.552 141.782, 204.788 132.851, 203.625 132.553 C 203.006 132.395, 200.099 131.560, 197.165 130.697 L 191.830 129.130 192.536 134.315 M 237 130.025 C 235.625 130.502, 232.588 131.384, 230.250 131.985 L 226 133.077 226 138.039 C 226 140.767, 226.251 143, 226.557 143 C 228.261 143, 236.641 140.601, 237.426 139.888 C 237.936 139.426, 238.642 136.787, 238.997 134.024 C 239.351 131.261, 239.610 129.036, 239.571 129.079 C 239.532 129.122, 238.375 129.548, 237 130.025 M 207.972 138.250 L 208.500 143.500 216 143.500 L 223.500 143.500 223.802 138.250 L 224.105 133 215.774 133 L 207.444 133 207.972 138.250 M 198.500 144.943 C 206.861 150.780, 220.726 151.451, 229.891 146.463 C 232.707 144.930, 234.895 143.561, 234.754 143.420 C 233.918 142.584, 225 145.554, 225 146.668 C 225 147.401, 224.550 148, 224 148 C 223.450 148, 223 147.438, 223 146.750 C 223 145.861, 220.833 145.500, 215.500 145.500 C 209.514 145.500, 207.994 145.803, 207.968 147 C 207.941 148.289, 207.765 148.278, 206.718 146.916 C 206.048 146.044, 204.150 145.010, 202.500 144.618 C 200.850 144.226, 198.600 143.667, 197.500 143.377 C 196.147 143.019, 196.471 143.526, 198.500 144.943" stroke="none" fill="#0a4a9d" fill-rule="evenodd"/><path d="" stroke="none" fill="#000000" fill-rule="evenodd"/><path d="M 247 61.604 L 247 82.207 243.304 78.962 C 234.996 71.668, 220.365 67.815, 208.462 69.788 C 194.398 72.118, 180.064 82.578, 173.722 95.137 C 159.962 122.390, 173.989 155.360, 203.024 164.007 C 211.666 166.581, 219.424 166.531, 227.791 163.849 C 245.745 158.094, 259.195 142.807, 261.971 125 C 262.529 121.425, 262.988 101.063, 262.992 79.750 L 263 41 255 41 L 247 41 247 61.604 M 105.404 69.061 C 91.437 71.469, 78.073 81.820, 71.180 95.570 C 61.776 114.325, 65.335 135.594, 80.373 150.508 C 88.006 158.078, 93.577 161.341, 103.334 163.955 C 112.628 166.446, 114.592 166.464, 123.500 164.137 C 137.422 160.501, 147.736 152.986, 154.489 141.559 C 159.768 132.626, 159.510 132, 150.546 132 L 143.092 132 139.618 136.549 C 132.795 145.485, 125.424 149.224, 114.595 149.244 C 99.662 149.271, 87.444 140.771, 83.479 127.597 L 82.096 123 121.548 123 L 161 123 161 117.049 C 161 100.889, 153.744 86.864, 140.566 77.553 C 130.043 70.117, 117.228 67.022, 105.404 69.061 M 274.202 102.250 C 274.601 137.551, 274.831 138.796, 282.920 149.511 C 288.200 156.503, 294.512 160.758, 303.910 163.658 C 313.476 166.610, 316.477 166.591, 326.448 163.521 C 336.423 160.449, 343.076 155.584, 348.660 147.278 C 355.191 137.561, 356 132.247, 356 99.053 L 356 71 348 71 L 340 71 340 99.634 C 340 118.689, 339.607 129.581, 338.824 132.193 C 337.323 137.204, 330.945 144.468, 325.628 147.222 C 322.652 148.764, 319.687 149.360, 315 149.360 C 307.374 149.360, 302.456 147.192, 296.793 141.335 C 290.383 134.704, 290 132.367, 290 99.874 L 290 71 281.925 71 L 273.849 71 274.202 102.250 M 107.195 85.047 C 100.468 86.403, 94.145 90.045, 89.445 95.272 C 85.549 99.605, 82.108 106.441, 83.248 107.582 C 83.495 107.828, 97.480 107.910, 114.327 107.765 L 144.958 107.500 142.593 102.398 C 136.621 89.508, 121.599 82.145, 107.195 85.047 M 207.500 85.968 C 205.714 86.707, 205.898 86.967, 209.218 88.398 C 213.571 90.274, 217.470 90.429, 221.851 88.902 C 227.965 86.771, 225.049 84.963, 215.668 85.070 C 212.276 85.109, 208.600 85.513, 207.500 85.968 M 196.962 91.072 L 193.500 94.144 197.500 91.363 C 199.700 89.833, 201.688 88.450, 201.917 88.290 C 202.146 88.131, 201.904 88, 201.379 88 C 200.854 88, 198.866 89.382, 196.962 91.072 M 201.940 90.282 C 194.065 96.431, 194.349 96.051, 196.467 97.600 C 198.260 98.911, 198.724 98.678, 202.106 94.764 C 206.359 89.841, 206.251 86.915, 201.940 90.282 M 226.697 89.636 C 226.343 89.990, 227.478 92.129, 229.220 94.390 C 230.961 96.650, 232.495 98.658, 232.628 98.852 C 232.762 99.046, 233.795 98.557, 234.924 97.766 L 236.977 96.327 234.739 94.296 C 231.299 91.175, 227.411 88.922, 226.697 89.636 M 203.963 95.046 C 202.201 97.271, 200.943 99.276, 201.167 99.500 C 201.391 99.725, 203.412 100.202, 205.657 100.561 L 209.739 101.214 211.277 96.699 C 212.777 92.297, 212.762 92.171, 210.658 91.606 C 207.379 90.727, 207.388 90.722, 203.963 95.046 M 220.279 91.806 C 219.330 92.409, 219.319 93.431, 220.231 96.399 C 221.619 100.922, 222.353 101.311, 227.486 100.244 L 231.387 99.434 227.577 95.217 C 223.734 90.963, 222.508 90.390, 220.279 91.806 M 213.609 96.020 C 211.352 101.661, 211.493 102, 216.107 102 C 218.974 102, 220.073 101.623, 219.748 100.750 C 219.492 100.063, 218.679 97.813, 217.940 95.750 C 217.202 93.688, 216.287 92, 215.908 92 C 215.528 92, 214.493 93.809, 213.609 96.020 M 188.988 103.176 C 185.850 107.508, 186.047 108.884, 190.117 111.063 C 191.617 111.866, 192.253 111.264, 194.138 107.258 C 196.970 101.237, 196.975 100.905, 194.237 99.892 C 192.307 99.178, 191.532 99.663, 188.988 103.176 M 236.404 100.152 L 234.307 101.169 236.904 106.334 C 238.332 109.175, 239.573 111.648, 239.663 111.830 C 240.023 112.557, 245 108.696, 245 107.689 C 245 106.355, 239.961 98.974, 239.114 99.068 C 238.776 99.105, 237.557 99.593, 236.404 100.152 M 471.223 100.557 C 469.095 102.047, 469 102.749, 469 117.034 C 469 131.773, 469.030 131.973, 471.456 133.563 C 473.844 135.128, 474.269 134.961, 486.866 127.541 C 499.694 119.984, 501.474 118.399, 500.366 115.512 C 499.796 114.027, 476.143 99, 474.376 99 C 473.864 99, 472.445 99.701, 471.223 100.557 M 197.807 104.210 C 196.995 105.469, 195.831 107.960, 195.220 109.744 C 193.937 113.487, 194.787 114.268, 201.878 115.861 C 205.852 116.754, 206.036 116.687, 206.564 114.145 C 206.866 112.690, 207.515 109.715, 208.005 107.532 C 208.496 105.350, 208.808 103.495, 208.699 103.410 C 208.590 103.326, 206.426 102.956, 203.891 102.588 C 199.798 101.995, 199.118 102.176, 197.807 104.210 M 225.640 102.727 C 223.002 103.121, 222.834 103.400, 223.468 106.327 C 223.846 108.072, 224.404 111.188, 224.709 113.250 C 225.014 115.313, 225.347 117, 225.450 117 C 226.024 117, 236.617 113.719, 237.219 113.355 C 237.615 113.115, 236.734 110.463, 235.261 107.460 C 232.473 101.775, 232.365 101.722, 225.640 102.727 M 210.083 109.049 C 208.266 117.521, 208.610 118.013, 216.332 117.985 C 222.561 117.962, 222.909 117.464, 221.739 110.250 L 220.724 104 215.945 104 L 211.166 104 210.083 109.049 M 184 116.477 C 184 121.234, 184.333 122.172, 186.531 123.612 C 187.923 124.525, 189.210 125.097, 189.390 124.885 C 189.571 124.673, 189.988 122.434, 190.318 119.908 C 190.872 115.674, 190.691 115.148, 188 113.158 C 186.394 111.971, 184.838 111, 184.540 111 C 184.243 111, 184 113.465, 184 116.477 M 243.500 113.454 C 240.601 115.431, 240.531 115.660, 241.418 120.250 C 242.416 125.419, 242.626 125.599, 245.303 123.569 C 246.728 122.489, 247.042 121.070, 246.803 116.805 L 246.500 111.408 243.500 113.454 M 192.651 119.697 C 191.550 126.358, 191.715 126.715, 196.678 128.406 C 203.272 130.653, 205 130.491, 205 127.625 C 205 126.319, 205.258 123.956, 205.574 122.375 C 206.121 119.634, 205.922 119.446, 201.324 118.337 C 198.671 117.698, 195.775 116.886, 194.890 116.534 C 193.631 116.033, 193.142 116.723, 192.651 119.697 M 231.250 117.860 L 226 119.474 226 124.865 L 226 130.256 230.105 129.599 C 232.363 129.238, 235.425 128.315, 236.909 127.547 C 239.411 126.253, 239.568 125.803, 239.054 121.405 C 238.749 118.795, 238.050 116.567, 237.500 116.453 C 236.950 116.339, 234.137 116.972, 231.250 117.860 M 208 125.500 L 208 131 216 131 L 224 131 224 127.082 C 224 120.302, 223.633 120, 215.393 120 L 208 120 208 125.500 M 185 126.555 C 185 127.456, 190.124 137.213, 190.407 136.849 C 190.556 136.657, 190.484 134.640, 190.245 132.368 C 189.914 129.206, 189.248 127.978, 187.406 127.139 C 186.083 126.536, 185 126.273, 185 126.555 M 243.905 127.332 C 242.369 128.459, 240.286 136, 241.511 136 C 242.222 136, 246.321 126.988, 245.832 126.499 C 245.648 126.314, 244.780 126.689, 243.905 127.332 M 192.536 134.315 C 192.924 137.167, 193.746 139.819, 194.362 140.208 C 196.100 141.307, 205.045 143.288, 205.629 142.704 C 206.552 141.782, 204.788 132.851, 203.625 132.553 C 203.006 132.395, 200.099 131.560, 197.165 130.697 L 191.830 129.130 192.536 134.315 M 237 130.025 C 235.625 130.502, 232.588 131.384, 230.250 131.985 L 226 133.077 226 138.039 C 226 140.767, 226.251 143, 226.557 143 C 228.261 143, 236.641 140.601, 237.426 139.888 C 237.936 139.426, 238.642 136.787, 238.997 134.024 C 239.351 131.261, 239.610 129.036, 239.571 129.079 C 239.532 129.122, 238.375 129.548, 237 130.025 M 207.972 138.250 L 208.500 143.500 216 143.500 L 223.500 143.500 223.802 138.250 L 224.105 133 215.774 133 L 207.444 133 207.972 138.250 M 198.500 144.943 C 206.861 150.780, 220.726 151.451, 229.891 146.463 C 232.707 144.930, 234.895 143.561, 234.754 143.420 C 233.918 142.584, 225 145.554, 225 146.668 C 225 147.401, 224.550 148, 224 148 C 223.450 148, 223 147.438, 223 146.750 C 223 145.861, 220.833 145.500, 215.500 145.500 C 209.514 145.500, 207.994 145.803, 207.968 147 C 207.941 148.289, 207.765 148.278, 206.718 146.916 C 206.048 146.044, 204.150 145.010, 202.500 144.618 C 200.850 144.226, 198.600 143.667, 197.500 143.377 C 196.147 143.019, 196.471 143.526, 198.500 144.943" stroke="none" fill="#0a4a9d" fill-rule="evenodd"/><path d="M 86.597 33.843 C 86.310 34.307, 75.609 41.395, 62.816 49.593 L 39.556 64.500 45.778 65.337 C 51.957 66.169, 52 66.197, 52 69.421 C 52 71.206, 51.713 72.954, 51.362 73.305 C 51.011 73.656, 50.611 77.893, 50.474 82.721 C 50.336 87.550, 49.898 93.188, 49.501 95.250 L 48.777 99 52.389 99 C 56.513 99, 56.523 98.952, 55.149 85.248 C 54.749 81.260, 54.783 77.353, 55.224 76.565 C 55.671 75.766, 55.577 74.857, 55.012 74.508 C 54.456 74.164, 54 72.204, 54 70.153 L 54 66.425 61.390 67.362 C 68.135 68.217, 69.085 68.111, 72.258 66.149 C 74.171 64.967, 76.133 64.002, 76.618 64.004 C 77.103 64.006, 76.004 64.919, 74.177 66.034 C 72.349 67.148, 71.003 68.384, 71.187 68.780 C 71.370 69.176, 72.583 72.299, 73.883 75.720 L 76.246 81.940 81.373 77.424 C 91.559 68.450, 104.309 64.274, 118.081 65.399 L 125.663 66.019 124.664 60.509 C 124.115 57.479, 123.178 54.984, 122.583 54.965 C 121.987 54.945, 122.422 54.383, 123.549 53.715 C 124.675 53.047, 130.742 48.675, 137.030 44 L 148.462 35.500 123.481 34.340 C 91.788 32.869, 87.237 32.807, 86.597 33.843 M 669.121 69.101 C 666.163 69.607, 660.988 71.351, 657.621 72.978 C 633.967 84.405, 623.403 112.818, 634.191 136 C 638.308 144.846, 645.272 152.919, 653.225 158.064 C 658.856 161.707, 671.900 166, 677.336 166 C 681.762 166, 695.126 162.055, 700.441 159.180 C 709.517 154.270, 719.613 142.581, 721.540 134.750 L 722.217 132 714.134 132 C 706.333 132, 706.001 132.096, 704.608 134.750 C 700.206 143.138, 689.689 149.137, 679.144 149.275 C 663.596 149.478, 649.848 139.537, 646.608 125.750 L 645.962 123 685.481 123 L 725 123 725 115.657 C 725 96.219, 711.927 78.406, 692.245 71.025 C 686.216 68.763, 676.047 67.918, 669.121 69.101 M 465.878 71.246 C 453.780 75.485, 443.484 85.314, 437.295 98.532 C 434.702 104.068, 434.500 105.406, 434.500 117 C 434.500 129.376, 434.537 129.578, 438.240 137.332 C 442.753 146.784, 451.795 156.328, 460 160.301 C 463.025 161.765, 469.038 163.690, 473.361 164.578 C 480.922 166.131, 481.552 166.112, 489.821 164.091 C 500.321 161.525, 507.474 157.366, 514.630 149.664 C 525.869 137.570, 530.194 122.430, 526.875 106.799 C 523.987 93.200, 513.029 79.494, 500.056 73.254 C 493.282 69.996, 491.611 69.618, 482.534 69.289 C 474.002 68.980, 471.509 69.273, 465.878 71.246 M 566.836 70.855 C 563.721 71.886, 559.578 73.715, 557.630 74.920 C 552.510 78.084, 545.523 86.234, 542.295 92.808 L 539.500 98.500 539.199 130.750 L 538.897 163 546.370 163 L 553.844 163 554.189 133.250 C 554.578 99.796, 554.665 99.335, 562 92 C 567.356 86.644, 572.009 84.697, 579.547 84.657 C 587.135 84.617, 593.619 87.568, 598.520 93.294 C 604.437 100.207, 605 103.849, 605 135.182 L 605 163 613 163 L 621 163 620.992 136.750 C 620.984 108.288, 620.180 100.321, 616.502 92.247 C 613.045 84.661, 604.966 76.563, 597.116 72.817 C 588.588 68.747, 575.720 67.913, 566.836 70.855 M 367 78.500 L 367 86 389.047 86 L 411.094 86 408.148 89.750 C 406.528 91.813, 396.157 106.289, 385.101 121.919 L 365 150.338 365 156.669 L 365 163 399.500 163 L 434 163 434 155.518 L 434 148.036 410.210 147.768 L 386.420 147.500 408.670 116 L 430.920 84.500 430.960 77.750 L 431 71 399 71 L 367 71 367 78.500 M 474.723 85.010 C 464.873 86.725, 454.605 95.653, 451.407 105.281 C 450.371 108.398, 449.736 113.314, 449.782 117.838 C 450.078 146.322, 483.464 160.091, 502.982 139.778 C 509.732 132.754, 511.500 128.025, 511.499 117 C 511.498 105.572, 509.571 100.518, 502.526 93.474 C 495.076 86.024, 485.551 83.124, 474.723 85.010 M 669.987 85.336 C 660.552 87.403, 651.943 94.445, 647.948 103.363 L 646.094 107.500 662.110 107.775 C 670.919 107.926, 685.063 107.926, 693.543 107.775 L 708.959 107.500 706.612 102.500 C 700.342 89.144, 685.133 82.017, 669.987 85.336" stroke="none" fill="#f6841f" fill-rule="evenodd"/><path d="M 247 61.604 L 247 82.207 243.304 78.962 C 234.996 71.668, 220.365 67.815, 208.462 69.788 C 194.398 72.118, 180.064 82.578, 173.722 95.137 C 159.962 122.390, 173.989 155.360, 203.024 164.007 C 211.666 166.581, 219.424 166.531, 227.791 163.849 C 245.745 158.094, 259.195 142.807, 261.971 125 C 262.529 121.425, 262.988 101.063, 262.992 79.750 L 263 41 255 41 L 247 41 247 61.604 M 105.404 69.061 C 91.437 71.469, 78.073 81.820, 71.180 95.570 C 61.776 114.325, 65.335 135.594, 80.373 150.508 C 88.006 158.078, 93.577 161.341, 103.334 163.955 C 112.628 166.446, 114.592 166.464, 123.500 164.137 C 137.422 160.501, 147.736 152.986, 154.489 141.559 C 159.768 132.626, 159.510 132, 150.546 132 L 143.092 132 139.618 136.549 C 132.795 145.485, 125.424 149.224, 114.595 149.244 C 99.662 149.271, 87.444 140.771, 83.479 127.597 L 82.096 123 121.548 123 L 161 123 161 117.049 C 161 100.889, 153.744 86.864, 140.566 77.553 C 130.043 70.117, 117.228 67.022, 105.404 69.061 M 274.202 102.250 C 274.601 137.551, 274.831 138.796, 282.920 149.511 C 288.200 156.503, 294.512 160.758, 303.910 163.658 C 313.476 166.610, 316.477 166.591, 326.448 163.521 C 336.423 160.449, 343.076 155.584, 348.660 147.278 C 355.191 137.561, 356 132.247, 356 99.053 L 356 71 348 71 L 340 71 340 99.634 C 340 118.689, 339.607 129.581, 338.824 132.193 C 337.323 137.204, 330.945 144.468, 325.628 147.222 C 322.652 148.764, 319.687 149.360, 315 149.360 C 307.374 149.360, 302.456 147.192, 296.793 141.335 C 290.383 134.704, 290 132.367, 290 99.874 L 290 71 281.925 71 L 273.849 71 274.202 102.250 M 107.195 85.047 C 100.468 86.403, 94.145 90.045, 89.445 95.272 C 85.549 99.605, 82.108 106.441, 83.248 107.582 C 83.495 107.828, 97.480 107.910, 114.327 107.765 L 144.958 107.500 142.593 102.398 C 136.621 89.508, 121.599 82.145, 107.195 85.047 M 207.500 85.968 C 205.714 86.707, 205.898 86.967, 209.218 88.398 C 213.571 90.274, 217.470 90.429, 221.851 88.902 C 227.965 86.771, 225.049 84.963, 215.668 85.070 C 212.276 85.109, 208.600 85.513, 207.500 85.968 M 196.962 91.072 L 193.500 94.144 197.500 91.363 C 199.700 89.833, 201.688 88.450, 201.917 88.290 C 202.146 88.131, 201.904 88, 201.379 88 C 200.854 88, 198.866 89.382, 196.962 91.072 M 201.940 90.282 C 194.065 96.431, 194.349 96.051, 196.467 97.600 C 198.260 98.911, 198.724 98.678, 202.106 94.764 C 206.359 89.841, 206.251 86.915, 201.940 90.282 M 226.697 89.636 C 226.343 89.990, 227.478 92.129, 229.220 94.390 C 230.961 96.650, 232.495 98.658, 232.628 98.852 C 232.762 99.046, 233.795 98.557, 234.924 97.766 L 236.977 96.327 234.739 94.296 C 231.299 91.175, 227.411 88.922, 226.697 89.636 M 203.963 95.046 C 202.201 97.271, 200.943 99.276, 201.167 99.500 C 201.391 99.725, 203.412 100.202, 205.657 100.561 L 209.739 101.214 211.277 96.699 C 212.777 92.297, 212.762 92.171, 210.658 91.606 C 207.379 90.727, 207.388 90.722, 203.963 95.046 M 220.279 91.806 C 219.330 92.409, 219.319 93.431, 220.231 96.399 C 221.619 100.922, 222.353 101.311, 227.486 100.244 L 231.387 99.434 227.577 95.217 C 223.734 90.963, 222.508 90.390, 220.279 91.806 M 213.609 96.020 C 211.352 101.661, 211.493 102, 216.107 102 C 218.974 102, 220.073 101.623, 219.748 100.750 C 219.492 100.063, 218.679 97.813, 217.940 95.750 C 217.202 93.688, 216.287 92, 215.908 92 C 215.528 92, 214.493 93.809, 213.609 96.020 M 188.988 103.176 C 185.850 107.508, 186.047 108.884, 190.117 111.063 C 191.617 111.866, 192.253 111.264, 194.138 107.258 C 196.970 101.237, 196.975 100.905, 194.237 99.892 C 192.307 99.178, 191.532 99.663, 188.988 103.176 M 236.404 100.152 L 234.307 101.169 236.904 106.334 C 238.332 109.175, 239.573 111.648, 239.663 111.830 C 240.023 112.557, 245 108.696, 245 107.689 C 245 106.355, 239.961 98.974, 239.114 99.068 C 238.776 99.105, 237.557 99.593, 236.404 100.152 M 471.223 100.557 C 469.095 102.047, 469 102.749, 469 117.034 C 469 131.773, 469.030 131.973, 471.456 133.563 C 473.844 135.128, 474.269 134.961, 486.866 127.541 C 499.694 119.984, 501.474 118.399, 500.366 115.512 C 499.796 114.027, 476.143 99, 474.376 99 C 473.864 99, 472.445 99.701, 471.223 100.557 M 197.807 104.210 C 196.995 105.469, 195.831 107.960, 195.220 109.744 C 193.937 113.487, 194.787 114.268, 201.878 115.861 C 205.852 116.754, 206.036 116.687, 206.564 114.145 C 206.866 112.690, 207.515 109.715, 208.005 107.532 C 208.496 105.350, 208.808 103.495, 208.699 103.410 C 208.590 103.326, 206.426 102.956, 203.891 102.588 C 199.798 101.995, 199.118 102.176, 197.807 104.210 M 225.640 102.727 C 223.002 103.121, 222.834 103.400, 223.468 106.327 C 223.846 108.072, 224.404 111.188, 224.709 113.250 C 225.014 115.313, 225.347 117, 225.450 117 C 226.024 117, 236.617 113.719, 237.219 113.355 C 237.615 113.115, 236.734 110.463, 235.261 107.460 C 232.473 101.775, 232.365 101.722, 225.640 102.727 M 210.083 109.049 C 208.266 117.521, 208.610 118.013, 216.332 117.985 C 222.561 117.962, 222.909 117.464, 221.739 110.250 L 220.724 104 215.945 104 L 211.166 104 210.083 109.049 M 184 116.477 C 184 121.234, 184.333 122.172, 186.531 123.612 C 187.923 124.525, 189.210 125.097, 189.390 124.885 C 189.571 124.673, 189.988 122.434, 190.318 119.908 C 190.872 115.674, 190.691 115.148, 188 113.158 C 186.394 111.971, 184.838 111, 184.540 111 C 184.243 111, 184 113.465, 184 116.477 M 243.500 113.454 C 240.601 115.431, 240.531 115.660, 241.418 120.250 C 242.416 125.419, 242.626 125.599, 245.303 123.569 C 246.728 122.489, 247.042 121.070, 246.803 116.805 L 246.500 111.408 243.500 113.454 M 192.651 119.697 C 191.550 126.358, 191.715 126.715, 196.678 128.406 C 203.272 130.653, 205 130.491, 205 127.625 C 205 126.319, 205.258 123.956, 205.574 122.375 C 206.121 119.634, 205.922 119.446, 201.324 118.337 C 198.671 117.698, 195.775 116.886, 194.890 116.534 C 193.631 116.033, 193.142 116.723, 192.651 119.697 M 231.250 117.860 L 226 119.474 226 124.865 L 226 130.256 230.105 129.599 C 232.363 129.238, 235.425 128.315, 236.909 127.547 C 239.411 126.253, 239.568 125.803, 239.054 121.405 C 238.749 118.795, 238.050 116.567, 237.500 116.453 C 236.950 116.339, 234.137 116.972, 231.250 117.860 M 208 125.500 L 208 131 216 131 L 224 131 224 127.082 C 224 120.302, 223.633 120, 215.393 120 L 208 120 208 125.500 M 185 126.555 C 185 127.456, 190.124 137.213, 190.407 136.849 C 190.556 136.657, 190.484 134.640, 190.245 132.368 C 189.914 129.206, 189.248 127.978, 187.406 127.139 C 186.083 126.536, 185 126.273, 185 126.555 M 243.905 127.332 C 242.369 128.459, 240.286 136, 241.511 136 C 242.222 136, 246.321 126.988, 245.832 126.499 C 245.648 126.314, 244.780 126.689, 243.905 127.332 M 192.536 134.315 C 192.924 137.167, 193.746 139.819, 194.362 140.208 C 196.100 141.307, 205.045 143.288, 205.629 142.704 C 206.552 141.782, 204.788 132.851, 203.625 132.553 C 203.006 132.395, 200.099 131.560, 197.165 130.697 L 191.830 129.130 192.536 134.315 M 237 130.025 C 235.625 130.502, 232.588 131.384, 230.250 131.985 L 226 133.077 226 138.039 C 226 140.767, 226.251 143, 226.557 143 C 228.261 143, 236.641 140.601, 237.426 139.888 C 237.936 139.426, 238.642 136.787, 238.997 134.024 C 239.351 131.261, 239.610 129.036, 239.571 129.079 C 239.532 129.122, 238.375 129.548, 237 130.025 M 207.972 138.250 L 208.500 143.500 216 143.500 L 223.500 143.500 223.802 138.250 L 224.105 133 215.774 133 L 207.444 133 207.972 138.250 M 198.500 144.943 C 206.861 150.780, 220.726 151.451, 229.891 146.463 C 232.707 144.930, 234.895 143.561, 234.754 143.420 C 233.918 142.584, 225 145.554, 225 146.668 C 225 147.401, 224.550 148, 224 148 C 223.450 148, 223 147.438, 223 146.750 C 223 145.861, 220.833 145.500, 215.500 145.500 C 209.514 145.500, 207.994 145.803, 207.968 147 C 207.941 148.289, 207.765 148.278, 206.718 146.916 C 206.048 146.044, 204.150 145.010, 202.500 144.618 C 200.850 144.226, 198.600 143.667, 197.500 143.377 C 196.147 143.019, 196.471 143.526, 198.500 144.943" stroke="none" fill="#0a4a9d" fill-rule="evenodd"/></svg>